HIERARCHY
ROOT hip
{
  OFFSET -6.06208 83.6746 38.2136
  CHANNELS 6 Xposition Yposition Zposition Zrotation Xrotation Yrotation
  JOINT abdomen
  {
    OFFSET 0 20.6881 -0.73152
    CHANNELS 3 Zrotation Xrotation Yrotation
    JOINT chest
    {
      OFFSET 0 11.7043 -0.48768
      CHANNELS 3 Zrotation Xrotation Yrotation
      JOINT neck
      {
        OFFSET 0 22.1894 -2.19456
        CHANNELS 3 Zrotation Xrotation Yrotation
        JOINT head
        {
          OFFSET -0.24384 7.07133 1.2192
          CHANNELS 3 Zrotation Xrotation Yrotation
          JOINT leftEye
          {
            OFFSET 4.14528 8.04674 8.04672
            CHANNELS 3 Zrotation Xrotation Yrotation
            End Site
            {
              OFFSET 1 0 0
            }
          }
          JOINT rightEye
          {
            OFFSET -3.6576 8.04674 8.04672
            CHANNELS 3 Zrotation Xrotation Yrotation
            End Site
            {
              OFFSET 1 0 0
            }
          }
        }
      }
      JOINT rCollar
      {
        OFFSET -2.68224 19.2634 -4.8768
        CHANNELS 3 Zrotation Xrotation Yrotation
        JOINT rShldr
        {
          OFFSET -8.77824 -1.95073 1.46304
          CHANNELS 3 Zrotation Xrotation Yrotation
          JOINT rForeArm
          {
            OFFSET -28.1742 -1.7115 0.48768
            CHANNELS 3 Zrotation Xrotation Yrotation
            JOINT rHand
            {
              OFFSET -22.5879 0.773209 7.07136
              CHANNELS 3 Zrotation Xrotation Yrotation
              JOINT rThumb1
              {
                OFFSET -1.2192 -0.487915 3.41376
                CHANNELS 3 Zrotation Xrotation Yrotation
                JOINT rThumb2
                {
                  OFFSET -3.37035 -0.52449 3.41376
                  CHANNELS 3 Zrotation Xrotation Yrotation
                  End Site
                  {
                    OFFSET -1.78271 -1.18214 1.43049
                  }
                }
              }
              JOINT rIndex1
              {
                OFFSET -7.75947 0.938293 5.60832
                CHANNELS 3 Zrotation Xrotation Yrotation
                JOINT rIndex2
                {
                  OFFSET -2.54057 -0.884171 1.56538
                  CHANNELS 3 Zrotation Xrotation Yrotation
                  End Site
                  {
                    OFFSET -1.62519 -0.234802 1.16502
                  }
                }
              }
              JOINT rMid1
              {
                OFFSET -8.24714 1.18213 3.41376
                CHANNELS 3 Zrotation Xrotation Yrotation
                JOINT rMid2
                {
                  OFFSET -3.10165 -0.590103 1.0647
                  CHANNELS 3 Zrotation Xrotation Yrotation
                  End Site
                  {
                    OFFSET -2.48547 -0.328903 0.83742
                  }
                }
              }
              JOINT rRing1
              {
                OFFSET -8.82822 0.546677 1.51678
                CHANNELS 3 Zrotation Xrotation Yrotation
                JOINT rRing2
                {
                  OFFSET -2.60934 -0.819778 -0.0198488
                  CHANNELS 3 Zrotation Xrotation Yrotation
                  End Site
                  {
                    OFFSET -2.33842 -0.294052 0.168128
                  }
                }
              }
              JOINT rPinky1
              {
                OFFSET -8.27202 -0.0477905 -0.4584
                CHANNELS 3 Zrotation Xrotation Yrotation
                JOINT rPinky2
                {
                  OFFSET -1.82734 -0.647385 -0.700984
                  CHANNELS 3 Zrotation Xrotation Yrotation
                  End Site
                  {
                    OFFSET -1.69225 -0.51767 -0.607171
                  }
                }
              }
            }
          }
        }
      }
      JOINT lCollar
      {
        OFFSET 2.68224 19.2634 -4.8768
        CHANNELS 3 Zrotation Xrotation Yrotation
        JOINT lShldr
        {
          OFFSET 8.77824 -1.95073 1.46304
          CHANNELS 3 Zrotation Xrotation Yrotation
          JOINT lForeArm
          {
            OFFSET 28.1742 -1.7115 0.48768
            CHANNELS 3 Zrotation Xrotation Yrotation
            JOINT lHand
            {
              OFFSET 22.5879 0.773209 7.07136
              CHANNELS 3 Zrotation Xrotation Yrotation
              JOINT lThumb1
              {
                OFFSET 1.2192 -0.487915 3.41376
                CHANNELS 3 Zrotation Xrotation Yrotation
                JOINT lThumb2
                {
                  OFFSET 3.37035 -0.52449 3.41376
                  CHANNELS 3 Zrotation Xrotation Yrotation
                  End Site
                  {
                    OFFSET 1.78271 -1.18214 1.43049
                  }
                }
              }
              JOINT lIndex1
              {
                OFFSET 7.75947 0.938293 5.60832
                CHANNELS 3 Zrotation Xrotation Yrotation
                JOINT lIndex2
                {
                  OFFSET 2.54057 -0.884171 1.56538
                  CHANNELS 3 Zrotation Xrotation Yrotation
                  End Site
                  {
                    OFFSET 1.62519 -0.234802 1.16502
                  }
                }
              }
              JOINT lMid1
              {
                OFFSET 8.24714 1.18213 3.41376
                CHANNELS 3 Zrotation Xrotation Yrotation
                JOINT lMid2
                {
                  OFFSET 3.10165 -0.590103 1.0647
                  CHANNELS 3 Zrotation Xrotation Yrotation
                  End Site
                  {
                    OFFSET 2.48547 -0.328903 0.83742
                  }
                }
              }
              JOINT lRing1
              {
                OFFSET 8.82822 0.546677 1.51678
                CHANNELS 3 Zrotation Xrotation Yrotation
                JOINT lRing2
                {
                  OFFSET 2.60934 -0.819778 -0.0198488
                  CHANNELS 3 Zrotation Xrotation Yrotation
                  End Site
                  {
                    OFFSET 2.33842 -0.294052 0.168128
                  }
                }
              }
              JOINT lPinky1
              {
                OFFSET 8.27202 -0.0477905 -0.4584
                CHANNELS 3 Zrotation Xrotation Yrotation
                JOINT lPinky2
                {
                  OFFSET 1.82734 -0.647385 -0.700984
                  CHANNELS 3 Zrotation Xrotation Yrotation
                  End Site
                  {
                    OFFSET 1.69225 -0.51767 -0.607171
                  }
                }
              }
            }
          }
        }
      }
    }
  }
  JOINT rButtock
  {
    OFFSET -8.77824 4.35084 1.2192
    CHANNELS 3 Zrotation Xrotation Yrotation
    JOINT rThigh
    {
      OFFSET 0 -1.70687 -2.19456
      CHANNELS 3 Zrotation Xrotation Yrotation
      JOINT rShin
      {
        OFFSET 0 -36.8199 0.73152
        CHANNELS 3 Zrotation Xrotation Yrotation
        JOINT rFoot
        {
          OFFSET 0.73152 -45.1104 -5.12064
          CHANNELS 3 Zrotation Xrotation Yrotation
          End Site
          {
            OFFSET -1.1221 -3.69964 12.103
          }
        }
      }
    }
  }
  JOINT lButtock
  {
    OFFSET 8.77824 4.35084 1.2192
    CHANNELS 3 Zrotation Xrotation Yrotation
    JOINT lThigh
    {
      OFFSET 0 -1.70687 -2.19456
      CHANNELS 3 Zrotation Xrotation Yrotation
      JOINT lShin
      {
        OFFSET 0 -36.8199 0.73152
        CHANNELS 3 Zrotation Xrotation Yrotation
        JOINT lFoot
        {
          OFFSET -0.73152 -45.1104 -5.12064
          CHANNELS 3 Zrotation Xrotation Yrotation
          End Site
          {
            OFFSET 1.1221 -3.69964 12.103
          }
        }
      }
    }
  }
}
MOTION
Frames:	5
Frame Time:	0.00833333
-3.32429 84.2564 36.6832 0.943673 0.00141495 -0.0174858 -1.24151 -0.00398119 -0.0340789 -0.342494 -0.00249264 -0.0593272 1.943e-014 -1.59028e-015 3.23025e-016 5.81973e-014 3.18055e-015 1.00324e-015 -0 0 0 -0 0 0 9.73953e-015 1.59183e-017 3.97569e-016 2.04378e-013 3.10601e-016 4.57205e-015 3.48957e-012 -1.03487e-012 5.40694e-014 3.99725e-011 1.10996e-012 7.60153e-013 9.42876e-011 1.60283e-013 1.75885e-012 1.62826e-010 2.76708e-013 3.0263e-012 9.42947e-011 1.61811e-013 1.74931e-012 7.73091 5.47488 0.417314 9.42866e-011 1.60121e-013 1.75885e-012 2.90554 0.965183 0.102902 9.42947e-011 1.6022e-013 1.75646e-012 10.2786 0.731801 0.0259123 9.42889e-011 1.59028e-013 1.76203e-012 2.22167 -0.733487 -0.20892 9.6426e-015 1.70831e-017 0 2.00465e-013 1.11816e-016 3.57812e-015 3.49394e-012 1.05575e-012 2.8625e-014 3.99764e-011 -9.98197e-013 7.91958e-013 9.43087e-011 1.266e-013 1.75885e-012 1.62876e-010 2.13097e-013 3.03266e-012 9.43042e-011 1.27222e-013 1.75885e-012 -7.73091 5.47488 -0.417314 9.43084e-011 1.26725e-013 1.75567e-012 -2.90554 0.965183 -0.102902 9.43029e-011 1.26725e-013 1.75487e-012 -10.2786 0.731801 -0.0259123 9.4316e-011 1.29608e-013 1.75249e-012 -2.22167 -0.733487 0.20892 -2.03217e-016 0 -3.88251e-019 -0.453822 -1.92099 -0.00952741 -0.00915573 -2.07857 -0.0755533 -0.487471 3.99699 0.136655 2.03217e-016 0 3.88251e-019 -1.43726 -5.97115 0.129662 -0.00126431 5.25796 -0.0454145 0.507808 0.710743 -0.0722731 
-5.50231 83.9131 36.2641 -0.485776 0.0044785 -0.748265 -0.158202 -0.0862823 0.592246 -0.399403 -0.657846 0.126074 -0.0250283 1.47109 -0.29472 1.12441 0.266132 -0.589325 -0 0 0 -0 0 0 -8.37323e-014 -4.99509e-015 -7.0522e-015 22.8627 8.52121 -3.96709 -6.23463 -3.39746 9.04797 0.0448262 4.69933 0.652448 4.99208e-010 -8.40406e-010 5.80154e-010 8.69883e-010 -1.45335e-009 9.96216e-010 4.99214e-010 -8.40405e-010 5.80146e-010 7.73091 5.47488 0.417314 4.99206e-010 -8.40406e-010 5.80155e-010 2.90554 0.965183 0.102902 4.99213e-010 -8.40405e-010 5.80154e-010 10.2786 0.731801 0.0259123 4.99208e-010 -8.40405e-010 5.80161e-010 2.22167 -0.733487 -0.20892 -8.38172e-014 -4.99492e-015 -7.40784e-015 -23.5017 6.95426 3.07339 5.88315 -3.11582 -8.65806 -0.0145544 2.6774 -0.374802 7.44017e-010 9.06851e-010 4.46481e-010 1.28895e-009 1.5676e-009 7.65316e-010 7.44011e-010 9.06853e-010 4.46486e-010 -7.73091 5.47488 -0.417314 7.44017e-010 9.06852e-010 4.46481e-010 -2.90554 0.965183 -0.102902 7.4401e-010 9.06853e-010 4.46481e-010 -10.2786 0.731801 -0.0259123 7.44022e-010 9.06855e-010 4.46479e-010 -2.22167 -0.733487 0.20892 -2.03217e-016 0 -3.88251e-019 -6.24285 -2.2263 -0.010666 -0.00637817 -1.66784 -0.055688 -0.215806 3.89009 0.0952509 2.03217e-016 0 3.88251e-019 1.80694 -6.52306 -1.90242 -0.0188157 10.2662 -0.187386 0.738407 -5.07324 3.86214 
-5.50302 83.9126 36.2634 -1.99712 0.0075129 -1.52079 0.989462 -0.173098 1.25486 -0.455232 -1.35195 0.322292 -0.0351495 3.02617 -0.607441 2.32029 0.548784 -1.21341 -0 0 0 -0 0 0 -1.89631e-013 -1.06275e-014 -1.54928e-014 48.3667 17.3916 -8.46184 -11.673 -6.70676 18.7133 -0.0256775 9.66517 1.35693 9.61333e-010 -1.79534e-009 1.23705e-009 1.67678e-009 -3.10474e-009 2.12419e-009 9.61337e-010 -1.79534e-009 1.23704e-009 7.73091 5.47488 0.417314 9.61331e-010 -1.79534e-009 1.23705e-009 2.90554 0.965183 0.102902 9.61336e-010 -1.79534e-009 1.23705e-009 10.2786 0.731801 0.0259123 9.61331e-010 -1.79534e-009 1.23706e-009 2.22167 -0.733487 -0.20892 -1.89703e-013 -1.06285e-014 -1.58034e-014 -49.1806 14.2496 6.48722 11.1077 -6.18786 -17.9177 0.00829056 5.49983 -0.772688 1.48388e-009 1.93293e-009 9.52842e-010 2.57129e-009 3.34132e-009 1.63327e-009 1.48388e-009 1.93294e-009 9.52852e-010 -7.73091 5.47488 -0.417314 1.48388e-009 1.93294e-009 9.52846e-010 -2.90554 0.965183 -0.102902 1.48388e-009 1.93294e-009 9.52846e-010 -10.2786 0.731801 -0.0259123 1.48389e-009 1.93294e-009 9.52845e-010 -2.22167 -0.733487 0.20892 -2.03217e-016 0 -3.88251e-019 -12.3627 -2.54906 -0.0118702 -0.00375152 -1.23367 -0.0346985 0.0712289 3.77711 0.0514905 2.03217e-016 0 3.88251e-019 5.19404 -7.0957 -4.05616 -0.00934821 15.5605 -0.344132 1.85767 -11.1016 8.14338 
-5.51129 83.9116 36.2585 -3.34444 0.0105989 -2.20982 2.01382 -0.250768 1.84491 -0.500491 -1.96848 0.497145 -0.0295695 4.4128 -0.886496 3.38965 0.798057 -1.76813 -0 0 0 -0 0 0 -2.70676e-013 -1.50171e-014 -2.19517e-014 72.4097 25.0477 -13.0119 -15.5845 -9.17737 27.4766 -0.195007 14.0905 2.0113 1.30905e-009 -2.52154e-009 1.73695e-009 2.284e-009 -4.36059e-009 2.9826e-009 1.30905e-009 -2.52154e-009 1.73694e-009 7.73091 5.47488 0.417314 1.30905e-009 -2.52154e-009 1.73695e-009 2.90554 0.965183 0.102902 1.30905e-009 -2.52154e-009 1.73695e-009 10.2786 0.731801 0.0259123 1.30905e-009 -2.52153e-009 1.73696e-009 2.22167 -0.733487 -0.20892 -2.70737e-013 -1.50189e-014 -2.22235e-014 -72.862 20.6144 9.78431 14.9063 -8.49529 -26.245 0.0623012 8.03081 -1.1343 2.04343e-009 2.7203e-009 1.33593e-009 3.5411e-009 4.70238e-009 2.28988e-009 2.04343e-009 2.7203e-009 1.33594e-009 -7.73091 5.47488 -0.417314 2.04344e-009 2.7203e-009 1.33593e-009 -2.90554 0.965183 -0.102902 2.04343e-009 2.7203e-009 1.33593e-009 -10.2786 0.731801 -0.0259123 2.04344e-009 2.72031e-009 1.33593e-009 -2.22167 -0.733487 0.20892 -2.03217e-016 0 -3.88251e-019 -17.8209 -2.83692 -0.0129455 -0.00167742 -0.846387 -0.0159877 0.327062 3.67629 0.0124737 2.03217e-016 0 3.88251e-019 8.17744 -7.59647 -5.98089 0.025219 20.2822 -0.493299 3.64721 -16.3203 12.1835 
-5.51407 83.911 36.2556 -4.28181 0.013819 -2.69016 2.7261 -0.305688 2.25356 -0.528369 -2.39117 0.61832 -0.0170294 5.37875 -1.07915 4.13093 0.964212 -2.14925 -0 0 0 -0 0 0 -2.89584e-013 -1.63e-014 -2.34566e-014 90.0005 30.1581 -16.6426 -17.8405 -10.5202 33.6667 -0.375869 17.1718 2.48908 1.37074e-009 -2.67589e-009 1.84437e-009 2.39204e-009 -4.62757e-009 3.16707e-009 1.37075e-009 -2.67589e-009 1.84436e-009 7.73091 5.47488 0.417314 1.37074e-009 -2.67589e-009 1.84437e-009 2.90554 0.965183 0.102902 1.37074e-009 -2.67589e-009 1.84437e-009 10.2786 0.731801 0.0259123 1.37074e-009 -2.67589e-009 1.84438e-009 2.22167 -0.733487 -0.20892 -2.89643e-013 -1.63015e-014 -2.37051e-014 -89.8225 24.8937 12.244 17.0748 -9.72546 -31.9762 0.12011 9.83448 -1.39602 2.1522e-009 2.91086e-009 1.41081e-009 3.72957e-009 5.0318e-009 2.41817e-009 2.15219e-009 2.91087e-009 1.41083e-009 -7.73091 5.47488 -0.417314 2.1522e-009 2.91086e-009 1.41082e-009 -2.90554 0.965183 -0.102902 2.15219e-009 2.91087e-009 1.41082e-009 -10.2786 0.731801 -0.0259123 2.1522e-009 2.91087e-009 1.41082e-009 -2.22167 -0.733487 0.20892 -2.03217e-016 0 -3.88251e-019 -21.6251 -3.03754 -0.0136968 -0.000381981 -0.576321 -0.00295472 0.505219 3.60587 -0.0147063 2.03217e-016 0 3.88251e-019 10.2345 -7.94112 -7.32253 0.0651875 23.573 -0.604502 5.36066 -19.8233 15.1815 
